<svg width="23" height="23" viewBox="0 0 23 23" fill="none" xmlns="http://www.w3.org/2000/svg">
<path d="M16.976 4.75723L22.4924 10.2736C22.8158 10.5971 23 11.0418 23 11.5C23 11.9582 22.8158 12.4029 22.4924 12.7264L16.976 18.2428C16.6885 18.5303 16.3021 18.6875 15.8979 18.6875C15.0578 18.6875 14.375 18.0047 14.375 17.1646V14.375H8.625C7.82988 14.375 7.1875 13.7326 7.1875 12.9375V10.0625C7.1875 9.26738 7.82988 8.625 8.625 8.625H14.375V5.83535C14.375 4.99531 15.0578 4.3125 15.8979 4.3125C16.3021 4.3125 16.6885 4.47422 16.976 4.75723ZM7.1875 4.3125H4.3125C3.51738 4.3125 2.875 4.95488 2.875 5.75V17.25C2.875 18.0451 3.51738 18.6875 4.3125 18.6875H7.1875C7.98262 18.6875 8.625 19.3299 8.625 20.125C8.625 20.9201 7.98262 21.5625 7.1875 21.5625H4.3125C1.93164 21.5625 0 19.6309 0 17.25V5.75C0 3.36914 1.93164 1.4375 4.3125 1.4375H7.1875C7.98262 1.4375 8.625 2.07988 8.625 2.875C8.625 3.67012 7.98262 4.3125 7.1875 4.3125Z" fill="white"/>
</svg>
