<svg width="50" height="50" viewBox="0 0 50 50" fill="none" xmlns="http://www.w3.org/2000/svg">
<rect width="50" height="50" rx="25" fill="white"/>
<path d="M5.88494 30V19.8182H8.03764V28.2251H12.4027V30H5.88494ZM22.7884 24.9091C22.7884 26.0194 22.5779 26.964 22.157 27.7429C21.7393 28.5218 21.1693 29.1167 20.4467 29.5277C19.7275 29.9354 18.9188 30.1392 18.0206 30.1392C17.1158 30.1392 16.3037 29.9337 15.5845 29.5227C14.8653 29.1117 14.2969 28.5168 13.8793 27.7379C13.4616 26.959 13.2528 26.0161 13.2528 24.9091C13.2528 23.7988 13.4616 22.8542 13.8793 22.0753C14.2969 21.2964 14.8653 20.7031 15.5845 20.2955C16.3037 19.8845 17.1158 19.679 18.0206 19.679C18.9188 19.679 19.7275 19.8845 20.4467 20.2955C21.1693 20.7031 21.7393 21.2964 22.157 22.0753C22.5779 22.8542 22.7884 23.7988 22.7884 24.9091ZM20.6058 24.9091C20.6058 24.1899 20.4981 23.5833 20.2827 23.0895C20.0705 22.5956 19.7706 22.2211 19.3828 21.9659C18.995 21.7107 18.541 21.5831 18.0206 21.5831C17.5002 21.5831 17.0462 21.7107 16.6584 21.9659C16.2706 22.2211 15.969 22.5956 15.7536 23.0895C15.5414 23.5833 15.4354 24.1899 15.4354 24.9091C15.4354 25.6283 15.5414 26.2348 15.7536 26.7287C15.969 27.2225 16.2706 27.5971 16.6584 27.8523C17.0462 28.1075 17.5002 28.2351 18.0206 28.2351C18.541 28.2351 18.995 28.1075 19.3828 27.8523C19.7706 27.5971 20.0705 27.2225 20.2827 26.7287C20.4981 26.2348 20.6058 25.6283 20.6058 24.9091ZM31.1344 23.1094C31.0648 22.8674 30.967 22.6536 30.8411 22.468C30.7151 22.2791 30.561 22.12 30.3787 21.9908C30.1998 21.8582 29.9943 21.7571 29.7623 21.6875C29.5336 21.6179 29.28 21.5831 29.0016 21.5831C28.4812 21.5831 28.0239 21.7124 27.6294 21.9709C27.2383 22.2294 26.9334 22.6056 26.7147 23.0994C26.4959 23.59 26.3865 24.1899 26.3865 24.8991C26.3865 25.6084 26.4943 26.2116 26.7097 26.7088C26.9251 27.206 27.2301 27.5855 27.6245 27.8473C28.0189 28.1058 28.4846 28.2351 29.0215 28.2351C29.5087 28.2351 29.9247 28.1489 30.2694 27.9766C30.6174 27.8009 30.8825 27.554 31.0648 27.2358C31.2504 26.9176 31.3432 26.5414 31.3432 26.1072L31.7807 26.1719H29.1557V24.5511H33.4164V25.8338C33.4164 26.7287 33.2275 27.4976 32.8496 28.1406C32.4718 28.7803 31.9514 29.2741 31.2885 29.6222C30.6257 29.9669 29.8667 30.1392 29.0115 30.1392C28.057 30.1392 27.2185 29.9287 26.4959 29.5078C25.7734 29.0836 25.2099 28.482 24.8056 27.7031C24.4045 26.9209 24.204 25.9929 24.204 24.919C24.204 24.0937 24.3233 23.358 24.562 22.7116C24.8039 22.062 25.142 21.5118 25.5762 21.0611C26.0104 20.6103 26.5158 20.2673 27.0925 20.032C27.6692 19.7966 28.294 19.679 28.9668 19.679C29.5435 19.679 30.0804 19.7635 30.5776 19.9325C31.0748 20.0982 31.5156 20.3336 31.9 20.6385C32.2878 20.9434 32.6043 21.3063 32.8496 21.7273C33.0949 22.1449 33.2523 22.6056 33.3219 23.1094H31.1344ZM44.3899 24.9091C44.3899 26.0194 44.1795 26.964 43.7585 27.7429C43.3409 28.5218 42.7708 29.1167 42.0483 29.5277C41.3291 29.9354 40.5204 30.1392 39.6222 30.1392C38.7173 30.1392 37.9053 29.9337 37.1861 29.5227C36.4669 29.1117 35.8984 28.5168 35.4808 27.7379C35.0632 26.959 34.8544 26.0161 34.8544 24.9091C34.8544 23.7988 35.0632 22.8542 35.4808 22.0753C35.8984 21.2964 36.4669 20.7031 37.1861 20.2955C37.9053 19.8845 38.7173 19.679 39.6222 19.679C40.5204 19.679 41.3291 19.8845 42.0483 20.2955C42.7708 20.7031 43.3409 21.2964 43.7585 22.0753C44.1795 22.8542 44.3899 23.7988 44.3899 24.9091ZM42.2074 24.9091C42.2074 24.1899 42.0997 23.5833 41.8842 23.0895C41.6721 22.5956 41.3722 22.2211 40.9844 21.9659C40.5966 21.7107 40.1425 21.5831 39.6222 21.5831C39.1018 21.5831 38.6477 21.7107 38.2599 21.9659C37.8722 22.2211 37.5705 22.5956 37.3551 23.0895C37.143 23.5833 37.0369 24.1899 37.0369 24.9091C37.0369 25.6283 37.143 26.2348 37.3551 26.7287C37.5705 27.2225 37.8722 27.5971 38.2599 27.8523C38.6477 28.1075 39.1018 28.2351 39.6222 28.2351C40.1425 28.2351 40.5966 28.1075 40.9844 27.8523C41.3722 27.5971 41.6721 27.2225 41.8842 26.7287C42.0997 26.2348 42.2074 25.6283 42.2074 24.9091Z" fill="#006FFD"/>
</svg>
