<svg width="36" height="36" viewBox="0 0 36 36" fill="none" xmlns="http://www.w3.org/2000/svg">
<g clip-path="url(#clip0_15_106)">
<path d="M18 0C13.2261 0 8.64773 1.89642 5.27208 5.27208C1.89642 8.64773 0 13.2261 0 18C0 22.7739 1.89642 27.3523 5.27208 30.7279C8.64773 34.1036 13.2261 36 18 36C22.7739 36 27.3523 34.1036 30.7279 30.7279C34.1036 27.3523 36 22.7739 36 18C36 13.2261 34.1036 8.64773 30.7279 5.27208C27.3523 1.89642 22.7739 0 18 0ZM17.2055 27.7945L9.33047 19.9195C9.00703 19.5961 8.91562 19.1109 9.08437 18.6961C9.25313 18.2812 9.66797 18 10.125 18H14.625V11.25C14.625 10.0055 15.6305 9 16.875 9H19.125C20.3695 9 21.375 10.0055 21.375 11.25V18H25.875C26.332 18 26.7398 18.2742 26.9156 18.6961C27.0914 19.118 26.993 19.6031 26.6695 19.9195L18.7945 27.7945C18.3586 28.2305 17.6414 28.2305 17.2055 27.7945Z" fill="#006FFD"/>
</g>
<defs>
<clipPath id="clip0_15_106">
<rect width="36" height="36" fill="white"/>
</clipPath>
</defs>
</svg>
