<svg width="32" height="37" viewBox="0 0 32 37" fill="none" xmlns="http://www.w3.org/2000/svg">
<path d="M9.65714 1.26429L9.14286 2.28571H2.28571C1.02143 2.28571 0 3.30714 0 4.57143C0 5.83571 1.02143 6.85714 2.28571 6.85714H29.7143C30.9786 6.85714 32 5.83571 32 4.57143C32 3.30714 30.9786 2.28571 29.7143 2.28571H22.8571L22.3429 1.26429C21.9571 0.485714 21.1643 0 20.3 0H11.7C10.8357 0 10.0429 0.485714 9.65714 1.26429ZM29.7143 9.14286H2.28571L3.8 33.3571C3.91429 35.1643 5.41429 36.5714 7.22143 36.5714H24.7786C26.5857 36.5714 28.0857 35.1643 28.2 33.3571L29.7143 9.14286Z" fill="#FF0004"/>
</svg>
